<?xml version="1.0" standalone="no"?>
<!DOCTYPE svg PUBLIC "-//W3C//DTD SVG 20010904//EN"
 "http://www.w3.org/TR/2001/REC-SVG-20010904/DTD/svg10.dtd">
<svg version="1.0" xmlns="http://www.w3.org/2000/svg"
 width="512.000000pt" height="512.000000pt" viewBox="0 0 512.000000 512.000000"
 preserveAspectRatio="xMidYMid meet">

<g transform="translate(0.000000,512.000000) scale(0.100000,-0.100000)"
fill="#5834ac" stroke="none">
<path d="M404 5105 c-191 -41 -349 -201 -390 -394 -21 -99 -21 -4203 0 -4302
42 -195 200 -353 395 -395 99 -21 4203 -21 4302 0 195 42 353 200 395 395 21
99 21 4203 0 4302 -42 195 -200 353 -395 395 -95 20 -4214 19 -4307 -1z m3399
-884 l219 -6 24 -28 c33 -39 30 -66 -20 -176 -24 -53 -50 -114 -57 -136 -19
-54 -84 -117 -139 -135 -38 -12 -136 -14 -606 -11 l-560 3 -13 -73 c-24 -131
-157 -628 -196 -730 -5 -14 36 -16 407 -23 448 -7 450 -8 462 -63 7 -33 -60
-283 -90 -334 -10 -17 -36 -41 -56 -51 -37 -19 -44 -19 -438 -2 -246 11 -404
14 -409 8 -10 -10 -75 -268 -120 -477 -64 -292 -111 -631 -111 -807 0 -36 -5
-82 -11 -103 -21 -77 -100 -138 -225 -172 -64 -17 -276 -32 -317 -21 -41 10
-75 55 -89 116 -19 84 -16 455 5 610 21 150 84 464 131 648 l34 134 -31 -5
c-178 -31 -423 -34 -440 -6 -27 44 32 154 122 226 88 70 271 154 418 193 42
10 43 11 63 83 48 168 173 534 233 682 36 88 64 161 63 162 -7 8 -184 -21
-265 -43 -185 -48 -315 -124 -481 -278 -58 -54 -115 -103 -127 -108 -53 -25
-103 23 -124 120 -24 112 30 281 123 387 147 167 470 318 825 385 238 45 337
49 978 44 330 -4 698 -9 818 -13z"/>
</g>
</svg>
